@startuml


  class SessionController <<controller>> {
    saveSession()
    getAllSession()
    getSession()
  }

  class passport {
    options = {jwtFromRequest, secretOrKey}

    JwtStrategy()
  }

  class conf{
    jwtSecret
    refreshSecret
    db
    host
    port
  }

  class Session <<model>> {
    SessionSchema
  }
  class sessionRoute <<route>> {
    routes
  }

  sessionRoute -> SessionController
  sessionRoute --> passport
  SessionController ---> Session
  passport -> conf

  note left of Session::SessionSchema
    {
      userId: {type: String},
      DASS21_SCORES: {type: String},
      sessionDetails: {type: String},
    }
  end note

@enduml
